{
    "asset" : {
        "generator" : "Khronos glTF Blender I/O v3.4.50",
        "version" : "2.0"
    },
    "scene" : 0,
    "scenes" : [
        {
            "name" : "Scene",
            "nodes" : [
                0
            ]
        }
    ],
    "nodes" : [
        {
            "mesh" : 0,
            "name" : "Cube"
        }
    ],
    "meshes" : [
        {
            "name" : "Cube.001",
            "primitives" : [
                {
                    "attributes" : {
                        "POSITION" : 0,
                        "TEXCOORD_0" : 1,
                        "NORMAL" : 2
                    },
                    "indices" : 3
                }
            ]
        }
    ],
    "accessors" : [
        {
            "bufferView" : 0,
            "componentType" : 5126,
            "count" : 393216,
            "max" : [
                0.8075228333473206,
                0.7877966165542603,
                0.7738362550735474
            ],
            "min" : [
                -0.7802848815917969,
                -0.8149258494377136,
                -0.778606116771698
            ],
            "type" : "VEC3"
        },
        {
            "bufferView" : 1,
            "componentType" : 5126,
            "count" : 393216,
            "type" : "VEC2"
        },
        {
            "bufferView" : 2,
            "componentType" : 5126,
            "count" : 393216,
            "type" : "VEC3"
        },
        {
            "bufferView" : 3,
            "componentType" : 5125,
            "count" : 589824,
            "type" : "SCALAR"
        }
    ],
    "bufferViews" : [
        {
            "buffer" : 0,
            "byteLength" : 4718592,
            "byteOffset" : 0,
            "target" : 34962
        },
        {
            "buffer" : 0,
            "byteLength" : 3145728,
            "byteOffset" : 4718592,
            "target" : 34962
        },
        {
            "buffer" : 0,
            "byteLength" : 4718592,
            "byteOffset" : 7864320,
            "target" : 34962
        },
        {
            "buffer" : 0,
            "byteLength" : 2359296,
            "byteOffset" : 12582912,
            "target" : 34963
        }
    ],
    "buffers" : [
        {
            "byteLength" : 14942208,
            "uri" : "globe_model.bin"
        }
    ]
}
